<svg xmlns="http://www.w3.org/2000/svg" width="107.2" height="139">
  <path d="M53.6 31.8C24 31.8 0 55.8 0 85.4S24 139 53.6 139s53.6-24 53.6-53.6-24-53.6-53.6-53.6zm-.6 95.6c-22.7 0-41.1-18.4-41.1-41.1-.1-22.7 18.4-41.1 41.1-41.1 22.7 0 41.1 18.4 41.1 41.1 0 22.7-18.4 41.1-41.1 41.1z"/>
  <path d="M35.9 86.3c0-9.4 7.6-17 17-17s17 7.6 17 17-7.6 17-17 17-17-7.6-17-17zm5.9-31.5c0-3.5 2.8-6.3 6.3-6.3s6.3 2.8 6.3 6.3-2.8 6.3-6.3 6.3c-3.4 0-6.3-2.8-6.3-6.3zm14.8 1c0-3.5 2.8-6.3 6.3-6.3s6.3 2.8 6.3 6.3-2.8 6.3-6.3 6.3-6.3-2.8-6.3-6.3zm-28.5 4.8c0-3.5 2.8-6.3 6.3-6.3s6.3 2.8 6.3 6.3-2.8 6.3-6.3 6.3c-3.4 0-6.3-2.8-6.3-6.3zm-9.7 11.6c0-3.5 2.8-6.3 6.3-6.3s6.3 2.8 6.3 6.3-2.8 6.3-6.3 6.3-6.3-2.8-6.3-6.3zm-3.1 14.5c0-3.5 2.8-6.3 6.3-6.3s6.3 2.8 6.3 6.3-2.8 6.3-6.3 6.3c-3.5.1-6.3-2.8-6.3-6.3zm3.7 14.4c0-3.5 2.8-6.3 6.3-6.3s6.3 2.8 6.3 6.3-2.8 6.3-6.3 6.3-6.3-2.8-6.3-6.3zm10 11.4c0-3.5 2.8-6.3 6.3-6.3s6.3 2.8 6.3 6.3-2.8 6.3-6.3 6.3-6.3-2.8-6.3-6.3zm13.7 5.2c0-3.5 2.8-6.3 6.3-6.3s6.3 2.8 6.3 6.3-2.8 6.3-6.3 6.3-6.3-2.8-6.3-6.3zm14.7-1.5c0-3.5 2.8-6.3 6.3-6.3s6.3 2.8 6.3 6.3-2.8 6.3-6.3 6.3c-3.4.1-6.3-2.8-6.3-6.3zm12.9-8.1c0-3.5 2.8-6.3 6.3-6.3s6.3 2.8 6.3 6.3-2.8 6.3-6.3 6.3c-3.5.1-6.3-2.8-6.3-6.3zm19.5-3.1l-15.2-9.4 2.2-3.9s3.3 2.2 7 2.4c3.7.2 4.1-1.7 6.8-1.7 2.6 0 3.3.9 3.3.9s.7 2.4-1.1 5.9c-1.9 3.4-3 5.8-3 5.8z"/>
  <path d="M28.9 42.8s0-24 1-25.1c1-1.1 1.4-5.1 6.2-8C40.9 6.8 44.2 5 51.8 5c7.7 0 14.7.9 19.2 5.3 4.4 4.4 4.4 6.2 4.6 10 .2 3.8 1 23.5 1 23.5" fill="none" stroke="#000" stroke-width="10"/>
</svg>
